<svg width="153" height="40" viewBox="0 0 153 40" fill="none" xmlns="http://www.w3.org/2000/svg">
<path d="M19.924 0C8.93886 0 0 8.97148 0 19.9967C0 31.022 8.93886 39.9935 19.924 39.9935C30.9092 39.9935 39.8481 31.022 39.8481 19.9967C39.8481 8.97148 30.9092 0 19.924 0ZM19.924 37.2225C10.446 37.2225 2.76741 29.5094 2.76741 19.9967C2.76741 10.4841 10.446 2.77099 19.924 2.77099C29.4021 2.77099 37.0872 10.4776 37.0872 19.9967C37.0872 29.5159 29.4021 37.2225 19.924 37.2225Z" fill="white"/>
<path d="M33.0335 23.3088H33.2349V23.7391H33.3323V23.3088H33.5402V23.2175H33.0335V23.3088Z" fill="white"/>
<path d="M9.26368 25.2257H8.11384C7.85399 25.2257 7.73056 25.0823 7.73056 24.8019V24.3455C7.73056 24.2151 7.76304 24.1108 7.8345 24.026C7.90596 23.9413 7.99691 23.9021 8.11384 23.9021H9.01682C9.2312 23.9021 9.37411 24.0065 9.43908 24.2151L9.56251 24.6519H10.3875V24.1695C10.3875 23.8435 10.2836 23.5827 10.0627 23.361C9.84184 23.1458 9.5755 23.0415 9.26368 23.0415H7.93194C7.62012 23.0415 7.34728 23.1523 7.11991 23.3805C6.89904 23.6022 6.7886 23.8695 6.7886 24.1825V24.9649C6.7886 25.2844 6.89904 25.5517 7.11991 25.7799C7.34728 26.0016 7.62012 26.1124 7.93194 26.1124H9.08178C9.33514 26.1124 9.46506 26.2624 9.46506 26.5492V27.1426C9.46506 27.2664 9.43258 27.3773 9.36112 27.4555C9.28966 27.5403 9.19871 27.5859 9.08178 27.5859H8.16581C7.93844 27.5859 7.79552 27.4816 7.73706 27.273L7.61363 26.7774H6.7821V27.3121C6.7821 27.6381 6.88604 27.9054 7.10692 28.1206C7.32129 28.3357 7.58764 28.4466 7.91245 28.4466H9.26368C9.5755 28.4466 9.84834 28.3357 10.0692 28.1075C10.2901 27.8858 10.4005 27.612 10.4005 27.2925V26.3797C10.4005 26.0668 10.2901 25.7995 10.0627 25.5713C9.84184 25.3431 9.5755 25.2257 9.26368 25.2257Z" fill="white"/>
<path d="M13.9475 23.0415H11.5114V28.44H12.4599V26.458H13.941C14.2593 26.458 14.5257 26.3471 14.7595 26.1189C14.9804 25.8973 15.0909 25.6234 15.0909 25.3105V24.176C15.0909 23.863 14.9804 23.5957 14.7595 23.374C14.5387 23.1523 14.2658 23.0415 13.9475 23.0415ZM14.1489 25.1475C14.1489 25.2779 14.1099 25.3822 14.0385 25.4669C13.967 25.5517 13.8761 25.5908 13.7656 25.5908H12.4664V23.9152H13.7656C13.8761 23.9152 13.967 23.9543 14.0385 24.0391C14.1099 24.1238 14.1489 24.2281 14.1489 24.3585V25.1475Z" fill="white"/>
<path d="M24.1401 25.7864C24.2765 25.5908 24.3415 25.3626 24.3415 25.1214V24.1825C24.3415 23.8761 24.2311 23.6022 24.0037 23.3805C23.7828 23.1589 23.51 23.0415 23.1917 23.0415H20.814V28.44H21.769V26.3276H22.672L23.549 28.44H24.5624L23.6204 26.2102C23.8218 26.1189 23.9972 25.982 24.1401 25.7864ZM23.3865 25.0236C23.3865 25.154 23.3541 25.2583 23.2826 25.3431C23.2111 25.4213 23.1202 25.4604 23.0098 25.4604H21.7625V23.9152H23.0098C23.1202 23.9152 23.2111 23.9543 23.2826 24.0391C23.3541 24.1238 23.3865 24.2281 23.3865 24.3585V25.0236Z" fill="white"/>
<path d="M24.9391 23.9152H26.3099V28.44H27.2648V23.9152H28.642V23.0415H24.9391V23.9152Z" fill="white"/>
<path d="M31.8122 25.2257H30.6623C30.409 25.2257 30.279 25.0823 30.279 24.8019V24.3455C30.279 24.2151 30.3115 24.1108 30.383 24.026C30.448 23.9413 30.5454 23.9021 30.6623 23.9021H31.5653C31.7797 23.9021 31.9161 24.0065 31.9876 24.2151L32.111 24.6519H32.936V24.1695C32.936 23.8435 32.8256 23.5827 32.6112 23.361C32.3903 23.1458 32.124 23.0415 31.8057 23.0415H30.4739C30.1556 23.0415 29.8828 23.1523 29.6619 23.3805C29.441 23.6022 29.3241 23.8695 29.3241 24.1825V24.9649C29.3241 25.2844 29.441 25.5517 29.6619 25.7799C29.8828 26.0016 30.1556 26.1124 30.4739 26.1124H31.6173C31.8771 26.1124 32.0006 26.2624 32.0006 26.5492V27.1426C32.0006 27.2664 31.9681 27.3773 31.8966 27.4555C31.8252 27.5403 31.7342 27.5859 31.6173 27.5859H30.7078C30.4804 27.5859 30.3375 27.4816 30.279 27.273L30.1556 26.7774H29.3241V27.3121C29.3241 27.6381 29.4345 27.9054 29.6489 28.1206C29.8698 28.3357 30.1296 28.4466 30.4544 28.4466H31.7992C32.1175 28.4466 32.3903 28.3357 32.6112 28.1075C32.8321 27.8858 32.9425 27.612 32.9425 27.2925V26.3797C32.9425 26.0668 32.8321 25.7995 32.5982 25.5713C32.3903 25.3431 32.124 25.2257 31.8122 25.2257Z" fill="white"/>
<path d="M22.724 9.2583H12.4794L10.9138 11.7555L21.1519 11.7489L22.724 9.2583Z" fill="white"/>
<path d="M26.6022 16.7497H25.0691L23.4905 19.2534H28.1743L29.7529 21.757H32.7412L24.8158 9.16699L18.4494 19.2599H11.4854L13.0835 16.7562H17.41L18.9821 14.2526H9.33516L7.76307 16.7562H10.0757L6.92505 21.757H19.8916L24.8158 13.907L26.6022 16.7497Z" fill="white"/>
<path d="M34.1574 23.2175L33.9495 23.5305L33.7481 23.2175H33.6637V23.7391H33.7481V23.4131C33.7481 23.3936 33.7352 23.3805 33.7352 23.3544C33.7481 23.374 33.7611 23.3936 33.7676 23.4066L33.9365 23.6674H33.9495L34.1119 23.4131C34.1249 23.3936 34.1249 23.3805 34.1379 23.3544C34.1379 23.3805 34.1379 23.4001 34.1379 23.4131V23.7391H34.2289V23.2175H34.1574V23.2175Z" fill="white"/>
<path d="M18.5079 23.0415H17.2216C16.9033 23.0415 16.6305 23.1523 16.4031 23.3805C16.1822 23.6022 16.0653 23.8695 16.0653 24.1825V27.286C16.0653 27.612 16.1822 27.8858 16.4031 28.1075C16.624 28.3292 16.8968 28.4466 17.2216 28.4466H18.5079C18.8262 28.4466 19.0926 28.3357 19.3199 28.1075C19.5473 27.8858 19.6577 27.612 19.6577 27.286V24.1825C19.6577 23.8695 19.5473 23.5957 19.3199 23.3805C19.0926 23.1523 18.8327 23.0415 18.5079 23.0415ZM18.7093 27.123C18.7093 27.2469 18.6768 27.3512 18.5988 27.436C18.5274 27.5207 18.4364 27.5664 18.326 27.5664H17.4165C17.2996 27.5664 17.2086 27.5207 17.1372 27.436C17.0657 27.3512 17.0333 27.2469 17.0333 27.123V24.352C17.0333 24.2216 17.0657 24.1173 17.1372 24.0325C17.2086 23.9478 17.2996 23.9087 17.4165 23.9087H18.326C18.4364 23.9087 18.5274 23.9478 18.5988 24.0325C18.6703 24.1173 18.7093 24.2216 18.7093 24.352V27.123Z" fill="white"/>
<path d="M140.144 15.2699H140.975L141.274 14.4549H140.144V13.6986H141.547L141.839 12.8901H138.994V16.613H140.144V15.2699Z" fill="white"/>
<path d="M143.353 12.8901H142.197V16.613H143.353V12.8901Z" fill="white"/>
<path d="M145.302 15.2699H146.133L146.426 14.4549H145.302V13.6986H146.699L146.991 12.8901H144.146V16.613H145.302V15.2699Z" fill="white"/>
<path d="M147.537 16.613L147.68 16.111H148.985L149.135 16.613H150.304L148.953 12.8901H147.751L146.4 16.613H147.537ZM148.329 13.8486L148.79 15.4003H147.881L148.329 13.8486Z" fill="white"/>
<path d="M149.895 13.8421C149.947 13.8943 150.005 13.9334 150.07 13.9595C150.135 13.9921 150.207 14.0051 150.285 14.0051C150.363 14.0051 150.434 13.9921 150.499 13.9595C150.564 13.9334 150.622 13.8878 150.674 13.8421C150.726 13.79 150.765 13.7313 150.791 13.6661C150.824 13.6009 150.837 13.5292 150.837 13.4509C150.837 13.3727 150.824 13.301 150.791 13.2358C150.759 13.1706 150.72 13.1119 150.674 13.0597C150.622 13.0076 150.564 12.9684 150.499 12.9424C150.434 12.9098 150.363 12.8967 150.285 12.8967C150.207 12.8967 150.135 12.9098 150.07 12.9424C150.005 12.975 149.947 13.0141 149.895 13.0597C149.843 13.1119 149.804 13.1706 149.778 13.2358C149.745 13.301 149.732 13.3727 149.732 13.4509C149.732 13.5292 149.745 13.6009 149.778 13.6661C149.804 13.7313 149.849 13.79 149.895 13.8421ZM149.901 13.2684C149.921 13.2162 149.953 13.164 149.992 13.1249C150.031 13.0858 150.077 13.0532 150.129 13.0336C150.181 13.0141 150.233 13.001 150.291 13.001C150.35 13.001 150.402 13.0141 150.454 13.0336C150.505 13.0532 150.551 13.0858 150.59 13.1249C150.629 13.164 150.655 13.2097 150.681 13.2684C150.7 13.3205 150.713 13.3857 150.713 13.4509C150.713 13.5161 150.7 13.5748 150.681 13.6335C150.661 13.6856 150.629 13.7378 150.59 13.7769C150.551 13.816 150.505 13.8486 150.454 13.8682C150.402 13.8878 150.35 13.9008 150.291 13.9008C150.233 13.9008 150.181 13.8878 150.129 13.8682C150.077 13.8486 150.031 13.816 149.992 13.7769C149.953 13.7378 149.927 13.6922 149.901 13.6335C149.882 13.5813 149.869 13.5161 149.869 13.4509C149.869 13.3857 149.882 13.3205 149.901 13.2684Z" fill="white"/>
<path d="M150.194 13.4899H150.265L150.427 13.7638H150.551L150.382 13.4899C150.434 13.4834 150.473 13.4704 150.505 13.4443C150.531 13.4182 150.551 13.3791 150.551 13.3204C150.551 13.2552 150.531 13.2031 150.492 13.177C150.453 13.1509 150.395 13.1313 150.317 13.1313H150.083V13.7638H150.2V13.4899H150.194ZM150.194 13.2161H150.298C150.311 13.2161 150.33 13.2161 150.343 13.2161C150.356 13.2161 150.369 13.2226 150.382 13.2291C150.395 13.2357 150.402 13.2422 150.414 13.2552C150.421 13.2683 150.427 13.2813 150.427 13.3009C150.427 13.3204 150.421 13.34 150.414 13.353C150.408 13.3661 150.395 13.3726 150.389 13.3791C150.376 13.3856 150.363 13.3921 150.35 13.3921C150.337 13.3921 150.317 13.3921 150.298 13.3921H150.194V13.2161Z" fill="white"/>
<path d="M140.215 23.2046C140.267 23.2633 140.339 23.3089 140.417 23.3415C140.495 23.3741 140.592 23.3871 140.696 23.3871C140.8 23.3871 140.891 23.3741 140.975 23.3415C141.053 23.3089 141.125 23.2633 141.177 23.2046C141.229 23.1459 141.274 23.0742 141.3 22.9959C141.326 22.9112 141.339 22.8199 141.339 22.7156C141.339 22.6113 141.326 22.52 141.3 22.4352C141.274 22.3505 141.229 22.2787 141.177 22.2266C141.125 22.1679 141.053 22.1223 140.975 22.0962C140.897 22.0636 140.8 22.0505 140.696 22.0505C140.592 22.0505 140.495 22.0636 140.417 22.0962C140.339 22.1288 140.267 22.1744 140.215 22.2266C140.163 22.2853 140.118 22.357 140.092 22.4352C140.066 22.52 140.053 22.6113 140.053 22.7156C140.053 22.8199 140.066 22.9112 140.092 22.9959C140.118 23.0807 140.163 23.1524 140.215 23.2046ZM140.423 22.5591C140.436 22.5069 140.449 22.4678 140.475 22.4287C140.501 22.3896 140.527 22.3635 140.566 22.3374C140.605 22.3179 140.651 22.3048 140.703 22.3048C140.755 22.3048 140.8 22.3179 140.839 22.3374C140.878 22.357 140.904 22.3896 140.93 22.4287C140.956 22.4678 140.969 22.5135 140.982 22.5591C140.995 22.6113 141.001 22.6634 141.001 22.7156C141.001 22.7677 140.995 22.8199 140.982 22.8721C140.969 22.9242 140.956 22.9633 140.93 23.0025C140.904 23.0416 140.878 23.0742 140.839 23.0937C140.8 23.1198 140.755 23.1263 140.703 23.1263C140.651 23.1263 140.605 23.1133 140.566 23.0937C140.527 23.0742 140.501 23.0416 140.475 23.0025C140.449 22.9633 140.436 22.9177 140.423 22.8721C140.41 22.8199 140.404 22.7677 140.404 22.7156C140.404 22.6634 140.41 22.6113 140.423 22.5591Z" fill="white"/>
<path d="M141.969 22.8459H142.463V22.5982H141.969V22.3113H142.489V22.0701H141.625V23.3675H141.969V22.8459Z" fill="white"/>
<path d="M143.087 22.8459H143.587V22.5982H143.087V22.3113H143.606V22.0701H142.742V23.3675H143.087V22.8459Z" fill="white"/>
<path d="M144.237 22.0701H143.892V23.3675H144.237V22.0701Z" fill="white"/>
<path d="M144.782 23.2373C144.854 23.2895 144.932 23.3286 145.023 23.3482C145.114 23.3743 145.198 23.3808 145.282 23.3808C145.367 23.3808 145.445 23.3743 145.503 23.3612C145.562 23.3482 145.614 23.3351 145.666 23.3286L145.646 23.0548C145.601 23.0743 145.549 23.0874 145.49 23.1004C145.432 23.1135 145.38 23.12 145.321 23.12C145.256 23.12 145.198 23.1135 145.146 23.0939C145.094 23.0743 145.049 23.0483 145.01 23.0157C144.971 22.9831 144.945 22.9374 144.919 22.8853C144.899 22.8331 144.886 22.7744 144.886 22.7157C144.886 22.6571 144.899 22.5984 144.912 22.5462C144.932 22.4941 144.958 22.4484 144.997 22.4158C145.029 22.3767 145.075 22.3506 145.127 22.3311C145.178 22.3115 145.23 22.2985 145.295 22.2985C145.354 22.2985 145.412 22.305 145.464 22.318C145.516 22.3311 145.575 22.3571 145.627 22.3897L145.653 22.1094C145.588 22.0898 145.529 22.0768 145.464 22.0637C145.399 22.0507 145.334 22.0442 145.269 22.0442C145.166 22.0442 145.062 22.0572 144.977 22.0833C144.886 22.1094 144.808 22.155 144.743 22.2072C144.678 22.2659 144.626 22.3311 144.587 22.4158C144.548 22.5006 144.529 22.5984 144.529 22.7092C144.529 22.8331 144.548 22.9374 144.594 23.0222C144.652 23.12 144.711 23.1852 144.782 23.2373Z" fill="white"/>
<path d="M146.276 22.0701H145.932V23.3675H146.276V22.0701Z" fill="white"/>
<path d="M146.971 23.0874H147.459L147.556 23.3612H147.933L147.433 22.0637H147.01L146.517 23.3612H146.868L146.971 23.0874ZM147.218 22.3376L147.374 22.8461H147.049L147.218 22.3376Z" fill="white"/>
<path d="M149.037 23.1067H148.505V22.0701H148.16V23.3675H149.037V23.1067Z" fill="white"/>
<path d="M140.93 25.3108H140.397V24.2676H140.053V25.5651H140.93V25.3108Z" fill="white"/>
<path d="M141.534 24.2676H141.19V25.5651H141.534V24.2676Z" fill="white"/>
<path d="M142.047 24.4175C141.982 24.4762 141.93 24.5414 141.891 24.6261C141.852 24.7109 141.833 24.8087 141.833 24.9195C141.833 25.0434 141.852 25.1477 141.898 25.2325C141.943 25.3173 142.002 25.389 142.073 25.4346C142.145 25.4868 142.223 25.5259 142.314 25.5454C142.405 25.5715 142.489 25.578 142.574 25.578C142.658 25.578 142.736 25.5715 142.794 25.5585C142.853 25.5454 142.905 25.5324 142.957 25.5259L142.937 25.2521C142.892 25.2716 142.84 25.2846 142.781 25.2977C142.723 25.3107 142.671 25.3173 142.612 25.3173C142.548 25.3173 142.489 25.3107 142.437 25.2912C142.385 25.2716 142.34 25.2455 142.301 25.2129C142.262 25.1803 142.236 25.1347 142.21 25.0825C142.19 25.0304 142.177 24.9717 142.177 24.913C142.177 24.8543 142.184 24.7957 142.203 24.7435C142.223 24.6913 142.249 24.6457 142.288 24.6131C142.32 24.574 142.366 24.5479 142.418 24.5283C142.47 24.5088 142.522 24.4957 142.587 24.4957C142.645 24.4957 142.703 24.5023 142.755 24.5153C142.807 24.5283 142.866 24.5544 142.918 24.587L142.944 24.3067C142.879 24.2871 142.82 24.2741 142.755 24.261C142.69 24.248 142.625 24.2415 142.561 24.2415C142.457 24.2415 142.359 24.2545 142.268 24.2806C142.19 24.3197 142.112 24.3588 142.047 24.4175Z" fill="white"/>
<path d="M143.548 25.0304H144.081V24.7827H143.548V24.5153H144.113V24.2676H143.204V25.5651H144.133V25.3238H143.548V25.0304Z" fill="white"/>
<path d="M144.75 24.6783L145.204 25.5651H145.627V24.2676H145.315L145.321 25.1478H145.315L144.88 24.2676H144.438V25.5651H144.756L144.75 24.6783Z" fill="white"/>
<path d="M146.088 24.9455C146.133 24.9716 146.179 24.9977 146.237 25.0107C146.289 25.0238 146.341 25.0433 146.387 25.0564C146.432 25.0694 146.471 25.0889 146.497 25.1085C146.53 25.1281 146.543 25.1607 146.543 25.1998C146.543 25.2259 146.536 25.2454 146.523 25.265C146.51 25.2845 146.497 25.2976 146.478 25.3041C146.458 25.3106 146.432 25.3171 146.406 25.3237C146.38 25.3237 146.354 25.3302 146.328 25.3302C146.257 25.3302 146.192 25.3237 146.133 25.3041C146.075 25.2911 146.023 25.265 145.978 25.2454L145.945 25.5323C146.004 25.5519 146.069 25.5649 146.133 25.5714C146.205 25.5779 146.27 25.5845 146.328 25.5845C146.4 25.5845 146.471 25.5779 146.536 25.5649C146.608 25.5519 146.666 25.5323 146.718 25.4997C146.77 25.4671 146.816 25.4215 146.848 25.3693C146.881 25.3171 146.894 25.2454 146.894 25.1607C146.894 25.0824 146.881 25.0172 146.848 24.9716C146.816 24.926 146.783 24.8868 146.738 24.8608C146.692 24.8347 146.647 24.8086 146.588 24.7956C146.536 24.7825 146.484 24.7695 146.439 24.7499C146.393 24.7369 146.354 24.7173 146.328 24.7043C146.296 24.6847 146.283 24.6586 146.283 24.626C146.283 24.6 146.289 24.5739 146.309 24.5608C146.322 24.5478 146.341 24.5348 146.367 24.5217C146.393 24.5152 146.413 24.5087 146.445 24.5087C146.471 24.5087 146.497 24.5087 146.517 24.5087C146.569 24.5087 146.614 24.5152 146.666 24.5217C146.718 24.5282 146.764 24.5478 146.803 24.5674L146.822 24.3C146.777 24.287 146.731 24.274 146.673 24.2674C146.614 24.2609 146.556 24.2544 146.491 24.2544C146.426 24.2544 146.361 24.2609 146.289 24.274C146.224 24.287 146.159 24.3066 146.107 24.3392C146.056 24.3718 146.01 24.4109 145.978 24.463C145.945 24.5152 145.926 24.5804 145.926 24.6586C145.926 24.7369 145.939 24.8021 145.971 24.8477C146.004 24.8803 146.043 24.9194 146.088 24.9455Z" fill="white"/>
<path d="M148.095 24.5153V24.2676H147.186V25.5651H148.115V25.3238H147.53V25.0304H148.063V24.7827H147.53V24.5153H148.095Z" fill="white"/>
<path d="M148.414 24.2676V25.5651H148.881C148.992 25.5651 149.096 25.552 149.187 25.5325C149.278 25.5064 149.362 25.4738 149.427 25.4216C149.492 25.3695 149.551 25.3043 149.589 25.2195C149.628 25.1347 149.648 25.0369 149.648 24.9131C149.648 24.7892 149.628 24.6849 149.589 24.6001C149.551 24.5153 149.499 24.4501 149.434 24.4045C149.369 24.3523 149.284 24.3197 149.193 24.3002C149.102 24.2806 148.998 24.2676 148.881 24.2676H148.414V24.2676ZM149.187 24.6262C149.258 24.6914 149.291 24.7892 149.291 24.9196C149.291 25.05 149.258 25.1478 149.187 25.213C149.115 25.2782 149.018 25.3108 148.888 25.3108H148.751V24.5284H148.888C149.018 24.5284 149.122 24.561 149.187 24.6262Z" fill="white"/>
<path d="M140.397 27.3123H140.534C140.696 27.3123 140.82 27.2732 140.91 27.2014C141.001 27.1297 141.047 27.0254 141.047 26.895C141.047 26.7516 141.001 26.6407 140.904 26.5755C140.813 26.5038 140.664 26.4712 140.462 26.4712H140.053V27.7687H140.397V27.3123V27.3123ZM140.397 26.7124H140.488C140.521 26.7124 140.547 26.7124 140.573 26.719C140.599 26.7255 140.618 26.732 140.638 26.745C140.657 26.7581 140.67 26.7776 140.683 26.7972C140.696 26.8168 140.703 26.8494 140.703 26.882C140.703 26.9146 140.696 26.9406 140.683 26.9667C140.67 26.9928 140.657 27.0058 140.638 27.0254C140.618 27.0384 140.599 27.0515 140.573 27.058C140.547 27.0645 140.521 27.0645 140.488 27.0645H140.397V26.7124Z" fill="white"/>
<path d="M142.21 27.3058C142.197 27.2732 142.19 27.2471 142.177 27.221C142.164 27.1949 142.151 27.1754 142.132 27.1623C142.112 27.1493 142.093 27.1362 142.067 27.1297V27.1232C142.151 27.1036 142.216 27.0645 142.255 27.0124C142.294 26.9537 142.314 26.8885 142.314 26.7972C142.314 26.7385 142.301 26.6929 142.281 26.6538C142.262 26.6146 142.229 26.582 142.19 26.5494C142.151 26.5234 142.106 26.5038 142.054 26.4908C142.002 26.4777 141.95 26.4712 141.891 26.4712H141.274V27.7687H141.619V27.2536H141.69C141.723 27.2536 141.748 27.2601 141.774 27.2666C141.794 27.2732 141.82 27.2862 141.833 27.3123C141.852 27.3318 141.865 27.3644 141.885 27.397C141.898 27.4296 141.917 27.4818 141.937 27.5339L142.008 27.7687H142.366L142.242 27.4166C142.236 27.3709 142.223 27.3384 142.21 27.3058ZM141.95 26.9406C141.937 26.9602 141.911 26.9732 141.891 26.9863C141.865 26.9993 141.839 26.9993 141.807 27.0058C141.774 27.0058 141.748 27.0058 141.723 27.0058H141.632V26.7124H141.723C141.755 26.7124 141.787 26.7124 141.82 26.719C141.852 26.7255 141.878 26.732 141.898 26.7385C141.924 26.7516 141.937 26.7646 141.956 26.7842C141.969 26.8037 141.976 26.8298 141.976 26.8559C141.969 26.895 141.963 26.9211 141.95 26.9406Z" fill="white"/>
<path d="M143.704 26.6277C143.652 26.569 143.58 26.5234 143.502 26.4973C143.425 26.4647 143.327 26.4517 143.223 26.4517C143.119 26.4517 143.022 26.4647 142.944 26.4973C142.866 26.5299 142.794 26.5755 142.742 26.6277C142.69 26.6864 142.645 26.7581 142.619 26.8363C142.593 26.9211 142.58 27.0124 142.58 27.1167C142.58 27.221 142.593 27.3123 142.619 27.3971C142.645 27.4818 142.69 27.5535 142.742 27.6057C142.794 27.6644 142.866 27.71 142.944 27.7426C143.022 27.7752 143.119 27.7883 143.223 27.7883C143.327 27.7883 143.418 27.7752 143.502 27.7426C143.58 27.71 143.652 27.6644 143.704 27.6057C143.756 27.547 143.801 27.4753 143.827 27.3971C143.853 27.3123 143.866 27.221 143.866 27.1167C143.866 27.0124 143.853 26.9211 143.827 26.8363C143.801 26.7516 143.756 26.6864 143.704 26.6277ZM143.496 27.2732C143.483 27.3253 143.47 27.3645 143.444 27.4036C143.418 27.4427 143.392 27.4753 143.353 27.4949C143.314 27.5209 143.269 27.5275 143.217 27.5275C143.165 27.5275 143.119 27.5144 143.08 27.4949C143.041 27.4753 143.015 27.4427 142.989 27.4036C142.963 27.3645 142.95 27.3188 142.937 27.2732C142.924 27.221 142.918 27.1689 142.918 27.1167C142.918 27.058 142.924 27.0059 142.937 26.9602C142.95 26.9081 142.963 26.8689 142.989 26.8298C143.015 26.7907 143.041 26.7646 143.08 26.7385C143.119 26.719 143.165 26.7059 143.217 26.7059C143.269 26.7059 143.314 26.719 143.353 26.7385C143.392 26.7581 143.418 26.7907 143.444 26.8298C143.47 26.8689 143.483 26.9146 143.496 26.9602C143.509 27.0124 143.515 27.0645 143.515 27.1167C143.515 27.1689 143.509 27.221 143.496 27.2732Z" fill="white"/>
<path d="M145.172 26.6015C145.107 26.5494 145.023 26.5168 144.932 26.4972C144.841 26.4776 144.737 26.4646 144.62 26.4646H144.152V27.7621H144.62C144.73 27.7621 144.834 27.749 144.925 27.7295C145.016 27.7034 145.101 27.6708 145.166 27.6186C145.23 27.5665 145.289 27.5013 145.328 27.4165C145.367 27.3318 145.386 27.234 145.386 27.1101C145.386 26.9862 145.367 26.8819 145.328 26.7971C145.295 26.7189 145.243 26.6537 145.172 26.6015ZM144.932 27.41C144.86 27.4752 144.763 27.5078 144.633 27.5078H144.496V26.7254H144.633C144.763 26.7254 144.86 26.758 144.932 26.8232C145.003 26.8884 145.036 26.9862 145.036 27.1166C145.036 27.247 144.997 27.3448 144.932 27.41Z" fill="white"/>
<path d="M145.822 27.6643C145.874 27.7035 145.932 27.7361 146.004 27.7556C146.075 27.7752 146.153 27.7882 146.231 27.7882C146.315 27.7882 146.393 27.7752 146.458 27.7556C146.53 27.7361 146.588 27.7035 146.64 27.6643C146.692 27.6252 146.731 27.5665 146.757 27.5079C146.783 27.4427 146.796 27.3644 146.796 27.2797V26.4712H146.452V27.221C146.452 27.2666 146.445 27.3057 146.439 27.3449C146.432 27.384 146.419 27.4166 146.406 27.4427C146.387 27.4687 146.367 27.4948 146.341 27.5144C146.315 27.5339 146.276 27.5405 146.231 27.5405C146.185 27.5405 146.153 27.5339 146.12 27.5144C146.094 27.4948 146.068 27.4753 146.055 27.4427C146.036 27.4166 146.029 27.3775 146.023 27.3449C146.017 27.3057 146.01 27.2666 146.01 27.221V26.4712H145.666V27.2731C145.666 27.3644 145.679 27.4361 145.705 27.5013C145.737 27.5665 145.776 27.6252 145.822 27.6643Z" fill="white"/>
<path d="M148.024 27.5145C147.965 27.5275 147.913 27.534 147.855 27.534C147.79 27.534 147.732 27.5275 147.68 27.508C147.628 27.4884 147.582 27.4623 147.543 27.4297C147.504 27.3971 147.478 27.3515 147.452 27.2993C147.433 27.2472 147.42 27.1885 147.42 27.1298C147.42 27.0711 147.433 27.0124 147.446 26.9603C147.465 26.9081 147.491 26.8625 147.53 26.8299C147.563 26.7908 147.608 26.7647 147.66 26.7451C147.712 26.7256 147.764 26.7125 147.829 26.7125C147.887 26.7125 147.946 26.719 147.998 26.7321C148.05 26.7451 148.108 26.7712 148.16 26.8038L148.186 26.5235C148.121 26.5039 148.063 26.4909 147.998 26.4778C147.933 26.4648 147.868 26.4583 147.803 26.4583C147.699 26.4583 147.602 26.4713 147.511 26.4974C147.42 26.5234 147.342 26.5691 147.277 26.6213C147.212 26.6799 147.16 26.7451 147.121 26.8299C147.082 26.9146 147.062 27.0124 147.062 27.1233C147.062 27.2472 147.082 27.3515 147.127 27.4362C147.173 27.521 147.231 27.5927 147.303 27.6384C147.374 27.6905 147.452 27.7296 147.543 27.7492C147.634 27.7753 147.719 27.7818 147.803 27.7818C147.887 27.7818 147.965 27.7753 148.024 27.7622C148.082 27.7492 148.134 27.7362 148.186 27.7296L148.167 27.4558C148.128 27.4819 148.076 27.5014 148.024 27.5145Z" fill="white"/>
<path d="M148.349 26.7255H148.667V27.7687H149.011V26.7255H149.33V26.4712H148.349V26.7255Z" fill="white"/>
<path d="M136.603 9.80615V30.3766H153V9.80615H136.603ZM152.825 30.1941H136.785V20.1794H152.825V30.1941ZM152.825 19.9969H136.785V9.98219H152.825V19.9969Z" fill="white"/>
<path d="M46.4418 9.80615H61.734L60.961 14.3049H51.327L50.6644 18.0865H58.4274L57.6544 22.5853H49.8588L48.5076 30.3766H42.8169L46.4418 9.80615Z" fill="white"/>
<path d="M63.7219 9.80615H69.3866L65.7617 30.3766H60.097L63.7219 9.80615Z" fill="white"/>
<path d="M71.3744 9.80615H86.6666L85.8936 14.3049H76.2661L75.6035 18.0865H83.3665L82.5935 22.5853H74.8045L73.4532 30.3766H67.7625L71.3744 9.80615Z" fill="white"/>
<path d="M91.4089 9.77344H97.7623L101.069 30.37H95.4366L94.9754 26.7645H87.875L86.147 30.37H80.6836L91.4089 9.77344ZM94.4297 22.4678L93.4812 15.0546H93.3643L89.9148 22.4678H94.4297Z" fill="white"/>
<path d="M129.919 9.80615L123.325 11.0319L122.701 14.7678L126.313 14.5983L123.526 30.3701H128.762L132.368 9.80615H129.919Z" fill="white"/>
<path d="M105.142 27.26L111.924 20.7662C113.418 19.3252 115.802 17.1345 115.802 15.2242C115.802 14.1549 114.997 13.6398 114.022 13.6398C112.21 13.6398 111.781 15.172 111.547 16.6129H106.461C106.487 16.5282 106.636 15.5763 106.662 15.485C107.435 11.3318 110.976 9.5127 115.055 9.5127C118.277 9.5127 121.233 10.8102 121.233 14.4483C121.233 18.4907 117.121 21.6007 114.393 24.0587L112.47 25.7931L112.444 25.9365H119.544L118.771 30.3766H104.603L105.142 27.26Z" fill="white"/>
</svg>
